<svg width="14" height="15" viewBox="0 0 14 15" fill="none" xmlns="http://www.w3.org/2000/svg">
<path d="M10 0.630859H4C3.60268 0.632505 3.22211 0.791068 2.94116 1.07202C2.66021 1.35297 2.50165 1.73354 2.5 2.13086V13.1309C2.50165 13.5282 2.66021 13.9088 2.94116 14.1897C3.22211 14.4707 3.60268 14.6292 4 14.6309H10C10.3973 14.6292 10.7779 14.4707 11.0588 14.1897C11.3398 13.9088 11.4984 13.5282 11.5 13.1309V2.13086C11.4984 1.73354 11.3398 1.35297 11.0588 1.07202C10.7779 0.791068 10.3973 0.632505 10 0.630859ZM7 4.13086C6.85166 4.13086 6.70666 4.08687 6.58332 4.00446C6.45999 3.92205 6.36386 3.80492 6.30709 3.66787C6.25032 3.53083 6.23547 3.38003 6.26441 3.23454C6.29335 3.08906 6.36478 2.95542 6.46967 2.85053C6.57456 2.74564 6.7082 2.67421 6.85368 2.64527C6.99917 2.61633 7.14997 2.63118 7.28701 2.68795C7.42406 2.74472 7.54119 2.84084 7.6236 2.96418C7.70601 3.08752 7.75 3.23252 7.75 3.38086C7.75 3.57977 7.67098 3.77054 7.53033 3.91119C7.38968 4.05184 7.19891 4.13086 7 4.13086Z" fill="#AEB9E1"/>
</svg>
