<svg width="13" height="13" viewBox="0 0 13 13" fill="none" xmlns="http://www.w3.org/2000/svg">
<path d="M11.6415 1.28603C11.4712 1.11643 11.269 0.982265 11.0465 0.891275C10.8241 0.800284 10.5858 0.754274 10.3454 0.755901C10.1051 0.757528 9.86745 0.806761 9.64624 0.900755C9.42503 0.994749 9.22463 1.13164 9.05663 1.30353L2.19403 8.16623C1.94057 8.41969 1.75989 8.7366 1.67089 9.08382L1.08969 11.3512C1.01419 11.6457 1.28199 11.9135 1.57654 11.8379L3.84401 11.2564C4.19113 11.1673 4.50796 10.9867 4.76135 10.7333L11.624 3.87049C11.796 3.70256 11.9329 3.50221 12.0269 3.28103C12.121 3.05986 12.1702 2.82223 12.1718 2.58191C12.1735 2.34158 12.1274 2.10331 12.0364 1.88088C11.9454 1.65845 11.8112 1.45627 11.6415 1.28603Z" fill="#AEB9E1" stroke="#AEB9E1" stroke-linecap="round" stroke-linejoin="round"/>
</svg>
