<svg width="30" height="30" viewBox="0 0 30 30" fill="none" xmlns="http://www.w3.org/2000/svg">
<path d="M4.54506 14.1161C4.31072 14.3505 4.17908 14.6684 4.17908 14.9998C4.17908 15.3313 4.31072 15.6492 4.54506 15.8836L11.6163 22.9548C11.7316 23.0742 11.8695 23.1694 12.0221 23.2349C12.1746 23.3005 12.3386 23.3349 12.5046 23.3364C12.6705 23.3378 12.8351 23.3062 12.9888 23.2433C13.1424 23.1805 13.2819 23.0877 13.3993 22.9703C13.5167 22.8529 13.6095 22.7134 13.6723 22.5598C13.7352 22.4061 13.7668 22.2415 13.7654 22.0756C13.7639 21.9096 13.7294 21.7456 13.6639 21.5931C13.5984 21.4406 13.5032 21.3026 13.3838 21.1873L8.44631 16.2498H25.0001C25.3316 16.2498 25.6495 16.1181 25.8839 15.8837C26.1184 15.6493 26.2501 15.3313 26.2501 14.9998C26.2501 14.6683 26.1184 14.3504 25.8839 14.1159C25.6495 13.8815 25.3316 13.7498 25.0001 13.7498L8.44631 13.7498L13.3838 8.81231C13.6115 8.57656 13.7375 8.26081 13.7347 7.93306C13.7318 7.60532 13.6003 7.2918 13.3686 7.06004C13.1368 6.82828 12.8233 6.69682 12.4956 6.69397C12.1678 6.69112 11.8521 6.81712 11.6163 7.04482L4.54506 14.1161Z" fill="#0955AC"/>
</svg>
