<svg width="20" height="20" viewBox="0 0 20 20" fill="none" xmlns="http://www.w3.org/2000/svg">
<path d="M7.50008 10.8334C7.96032 10.8334 8.33341 10.4603 8.33341 10C8.33341 9.53978 7.96032 9.16669 7.50008 9.16669C7.03984 9.16669 6.66675 9.53978 6.66675 10C6.66675 10.4603 7.03984 10.8334 7.50008 10.8334Z" stroke="#99A1AF" stroke-width="1.66667" stroke-linecap="round" stroke-linejoin="round"/>
<path d="M7.50008 4.99998C7.96032 4.99998 8.33341 4.62688 8.33341 4.16665C8.33341 3.70641 7.96032 3.33331 7.50008 3.33331C7.03984 3.33331 6.66675 3.70641 6.66675 4.16665C6.66675 4.62688 7.03984 4.99998 7.50008 4.99998Z" stroke="#99A1AF" stroke-width="1.66667" stroke-linecap="round" stroke-linejoin="round"/>
<path d="M7.50008 16.6667C7.96032 16.6667 8.33341 16.2936 8.33341 15.8333C8.33341 15.3731 7.96032 15 7.50008 15C7.03984 15 6.66675 15.3731 6.66675 15.8333C6.66675 16.2936 7.03984 16.6667 7.50008 16.6667Z" stroke="#99A1AF" stroke-width="1.66667" stroke-linecap="round" stroke-linejoin="round"/>
<path d="M12.5001 10.8334C12.9603 10.8334 13.3334 10.4603 13.3334 10C13.3334 9.53978 12.9603 9.16669 12.5001 9.16669C12.0398 9.16669 11.6667 9.53978 11.6667 10C11.6667 10.4603 12.0398 10.8334 12.5001 10.8334Z" stroke="#99A1AF" stroke-width="1.66667" stroke-linecap="round" stroke-linejoin="round"/>
<path d="M12.5001 4.99998C12.9603 4.99998 13.3334 4.62688 13.3334 4.16665C13.3334 3.70641 12.9603 3.33331 12.5001 3.33331C12.0398 3.33331 11.6667 3.70641 11.6667 4.16665C11.6667 4.62688 12.0398 4.99998 12.5001 4.99998Z" stroke="#99A1AF" stroke-width="1.66667" stroke-linecap="round" stroke-linejoin="round"/>
<path d="M12.5001 16.6667C12.9603 16.6667 13.3334 16.2936 13.3334 15.8333C13.3334 15.3731 12.9603 15 12.5001 15C12.0398 15 11.6667 15.3731 11.6667 15.8333C11.6667 16.2936 12.0398 16.6667 12.5001 16.6667Z" stroke="#99A1AF" stroke-width="1.66667" stroke-linecap="round" stroke-linejoin="round"/>
</svg>
